# xmcd CD database file
#
# Track frame offsets:
#	182
#	16225
#	41900
#
# Disc length: 821 seconds
#
# Revision: 0
# Processed by: cddbd v1.5.1PL0 Copyright (c) Steve Scherf et al.
# Submitted via: CDex 1.51
#
DISCID=1d033303
DTITLE=Uriah Heep - Dream On
DYEAR=1900
DGENRE=Hard Rock
TTITLE0=Dream On
TTITLE1=Mr. Majestic
TTITLE2=The Other Side Of Midnight (Live)
EXTD=
EXTT0=
EXTT1=
EXTT2=
PLAYORDER=
